<?xml version="1.0" standalone="no"?>
<!DOCTYPE svg PUBLIC "-//W3C//DTD SVG 20010904//EN"
 "http://www.w3.org/TR/2001/REC-SVG-20010904/DTD/svg10.dtd">
<svg version="1.0" xmlns="http://www.w3.org/2000/svg"
 width="130" height="30" viewBox="0 0 500 500 2000"
 preserveAspectRatio="xMidYMid meet">

  <!-- Define gradient here -->
  <defs>
    <linearGradient id="grad1" x1="0%" y1="0%" x2="100%" y2="100%">
      <stop offset="0%" style="stop-color:rgb(138,43,226);stop-opacity:1" /> <!-- Purple -->
      <stop offset="100%" style="stop-color:rgb(0,191,255);stop-opacity:1" /> <!-- Blue -->
    </linearGradient>
  </defs>

  <!-- Apply the gradient to the shape -->
  <g transform="translate(0.000000,500.000000) scale(0.100000,-0.100000)"
  fill="url(#grad1)" stroke="none">
    <path d="M1050 3395 c-83 -18 -210 -82 -277 -137 -28 -24 -75 -72 -103 -107
    -89 -111 -131 -213 -150 -365 -37 -294 117 -584 375 -707 230 -110 566 -59
    735 111 55 54 149 194 157 233 3 15 9 27 14 27 4 0 19 26 34 58 25 54 85 173
    91 180 1 2 22 -9 46 -26 62 -42 154 -87 218 -105 30 -9 64 -23 75 -31 19 -15
    19 -15 -10 -16 -17 0 -55 6 -85 14 -30 8 -56 13 -58 12 -5 -6 50 -38 89 -51
    24 -9 57 -12 89 -8 37 4 50 2 50 -7 0 -9 12 -10 47 -5 83 12 181 74 217 137
    l20 33 -45 -40 c-43 -39 -124 -83 -134 -73 -13 12 10 35 66 68 182 104 236
    390 109 574 -40 60 -113 124 -168 148 -55 24 -185 35 -250 20 -34 -8 -44 -7
    -50 5 -20 36 -296 -111 -328 -174 -10 -22 -13 -21 -108 51 -106 80 -203 132
    -311 166 -91 29 -262 36 -355 15z m280 -90 c25 -8 33 -13 19 -10 -173 31 -276
    27 -394 -14 -99 -35 -198 -111 -252 -192 -30 -46 -40 -51 -19 -11 23 44 102
    127 152 161 49 32 144 67 222 81 64 12 217 4 272 -15z m953 -2 c-7 -2 -21 -2
    -30 0 -10 3 -4 5 12 5 17 0 24 -2 18 -5z m-100 -23 c-29 -10 -74 -33 -100 -51
    -29 -19 -40 -24 -28 -11 26 27 134 82 160 81 11 0 -3 -9 -32 -19z m173 -189
    c71 -44 100 -137 66 -215 -25 -55 -63 -76 -144 -77 -44 0 -49 -2 -29 -10 45
    -18 141 -13 170 8 51 38 73 83 68 138 -2 28 -8 59 -11 70 -5 13 -2 11 8 -5 27
    -46 30 -96 7 -143 -32 -66 -73 -92 -146 -92 -66 1 -149 21 -140 35 3 4 -5 6
    -17 2 -14 -3 -19 -1 -14 6 5 8 2 10 -8 6 -10 -4 -16 -1 -16 7 0 7 -3 9 -7 6
    -3 -4 -12 1 -20 11 -8 9 -11 11 -7 3 4 -8 -12 3 -34 25 -23 21 -42 44 -42 50
    0 20 113 135 154 156 22 12 59 25 81 29 22 3 42 7 45 8 3 0 19 -8 36 -18z
    m-836 -81 c101 -67 158 -117 144 -127 -7 -5 -32 -48 -58 -96 -85 -163 -155
    -253 -237 -304 -33 -20 -59 -37 -59 -39 0 -1 16 0 35 3 77 12 12 -53 -72 -73
    -75 -18 -113 -17 -179 2 -64 18 -162 82 -196 127 -69 90 -97 199 -78 305 13
    75 28 107 64 141 29 27 43 23 27 -7 -21 -40 -11 -38 34 4 81 78 249 106 403
    68 67 -17 83 -14 63 10 -15 18 -6 36 18 36 9 0 50 -22 91 -50z m143 -431 c-45
    -77 -220 -210 -275 -209 -7 0 6 9 29 20 80 36 198 132 239 195 23 36 29 31 7
    -6z m-243 -109 c0 -5 -5 -10 -11 -10 -5 0 -7 5 -4 10 3 6 8 10 11 10 2 0 4 -4
    4 -10z"/>
  </g>
</svg>
